<?xml version="1.0" standalone="no"?>
<!DOCTYPE svg PUBLIC "-//W3C//DTD SVG 20010904//EN"
 "http://www.w3.org/TR/2001/REC-SVG-20010904/DTD/svg10.dtd">
<svg version="1.0" xmlns="http://www.w3.org/2000/svg"
 width="328.000000pt" height="313.000000pt" viewBox="0 0 328.000000 313.000000"
 preserveAspectRatio="xMidYMid meet">

<g transform="translate(0.000000,313.000000) scale(0.100000,-0.100000)"
fill="#000000" stroke="none">
<path d="M1453 2989 c-273 -20 -545 -123 -764 -288 -282 -212 -464 -496 -540
-841 -31 -138 -34 -408 -6 -539 59 -277 179 -507 364 -702 529 -555 1398 -609
2000 -124 250 201 425 490 495 818 30 145 30 389 0 534 -154 720 -801 1198
-1549 1142z m417 -54 c350 -79 648 -269 856 -544 69 -92 170 -286 204 -391 67
-212 83 -475 41 -677 -56 -267 -171 -488 -354 -679 -196 -205 -416 -334 -697
-406 -100 -26 -138 -31 -296 -35 -218 -7 -328 8 -509 68 -737 245 -1134 1013
-894 1734 139 419 466 742 894 884 184 61 258 71 485 67 135 -3 218 -9 270
-21z"/>
<path d="M1449 2829 c-494 -45 -927 -376 -1093 -837 -91 -254 -91 -570 0 -824
153 -426 533 -741 992 -824 118 -21 333 -21 447 0 279 51 509 171 705 366 374
373 467 946 230 1419 -236 471 -744 748 -1281 700z m411 -58 c513 -129 874
-510 956 -1009 19 -115 14 -330 -11 -432 -61 -252 -169 -444 -351 -620 -237
-229 -537 -350 -870 -351 -348 -1 -661 123 -897 355 -232 228 -352 496 -364
812 -9 225 24 390 117 580 169 349 520 610 914 679 121 21 395 13 506 -14z"/>
<path d="M1874 2271 c-83 -13 -151 -40 -220 -87 l-65 -43 -46 29 c-87 56 -164
75 -298 75 -99 0 -132 -4 -188 -23 -178 -62 -307 -208 -363 -412 -26 -91 -26
-338 0 -430 31 -115 84 -208 161 -285 110 -110 223 -155 390 -155 50 0 117 7
148 15 60 15 155 61 196 93 24 19 24 19 65 -8 23 -15 70 -38 106 -51 57 -21
82 -24 210 -24 127 1 152 4 202 23 152 61 265 194 292 345 l7 37 -105 0 -105
0 -21 -47 c-28 -63 -81 -116 -144 -145 -98 -44 -273 -22 -331 42 -15 17 -15
23 8 87 37 102 51 206 44 336 -6 120 -23 200 -63 286 -23 51 -23 55 -8 73 10
10 42 30 73 45 48 24 69 28 141 28 114 0 164 -20 229 -91 27 -29 55 -70 61
-89 l12 -35 105 0 106 0 -7 43 c-25 159 -184 318 -356 356 -69 15 -179 20
-236 12z m-470 -230 c70 -34 72 -40 41 -117 -45 -112 -57 -194 -52 -339 5
-142 20 -212 68 -315 l30 -65 -23 -19 c-13 -10 -48 -30 -78 -44 -45 -21 -70
-26 -140 -26 -132 0 -209 36 -284 134 -62 81 -89 174 -94 315 -4 128 9 208 47
298 27 63 114 155 171 180 88 39 230 38 314 -2z m215 -443 c-1 -88 -3 -104
-10 -73 -14 70 -10 185 7 185 2 0 3 -51 3 -112z"/>
</g>
</svg>
